<?xml version="1.0" standalone="no"?>
<!DOCTYPE svg PUBLIC "-//W3C//DTD SVG 20010904//EN"
 "http://www.w3.org/TR/2001/REC-SVG-20010904/DTD/svg10.dtd">
<svg version="1.0" xmlns="http://www.w3.org/2000/svg"
 width="700.000000pt" height="700.000000pt" viewBox="0 0 700.000000 700.000000"
 preserveAspectRatio="xMidYMid meet">
<metadata>
Created by potrace 1.11, written by Peter Selinger 2001-2013
</metadata>
<g transform="translate(0.000000,700.000000) scale(0.100000,-0.100000)"
fill="#000000" stroke="none">
<path d="M584 3510 l0 -3027 140 -1 c78 0 467 -4 866 -7 399 -4 881 -8 1073
-10 252 -2 347 1 348 9 4 47 3 660 -2 667 -5 9 -137 12 -1099 25 -267 3 -487
8 -490 10 -2 3 -5 1210 -5 2682 l0 2677 -416 1 -415 2 0 -3028z"/>
<path d="M2182 6521 c-6 -12 -8 -523 -3 -648 1 -18 5 -21 34 -16 51 9 1603 9
1697 0 47 -4 114 -9 150 -12 96 -8 185 -23 238 -41 101 -35 326 -161 424 -238
15 -11 44 -34 65 -51 292 -229 543 -630 666 -1065 33 -117 40 -145 52 -210 3
-14 7 -36 10 -50 11 -51 35 -228 42 -315 14 -172 6 -745 -11 -774 -2 -3 -7
-28 -10 -56 -9 -68 -15 -101 -26 -160 -6 -27 -12 -59 -14 -70 -31 -159 -113
-391 -201 -570 -110 -226 -214 -373 -370 -530 -278 -278 -617 -449 -1115 -560
l-75 -17 1 -321 c2 -394 0 -359 22 -353 9 3 35 7 56 11 21 3 48 7 60 10 12 2
37 7 56 9 41 6 318 68 401 90 199 53 495 171 619 246 8 5 47 28 85 51 141 83
275 178 380 268 57 50 261 257 311 316 170 203 340 490 444 750 17 44 36 89
40 100 44 100 133 438 156 592 3 21 7 49 9 63 13 80 24 193 32 315 12 189 6
560 -11 680 -3 17 -7 55 -10 85 -7 69 -27 196 -40 250 -3 14 -8 36 -10 50 -13
80 -107 401 -136 465 -5 11 -25 61 -46 110 -40 97 -154 323 -185 367 -11 14
-19 29 -19 32 0 7 -153 228 -182 263 -320 382 -656 635 -1076 809 -108 45
-183 62 -372 89 -78 11 -350 30 -595 41 -44 2 -408 6 -808 8 -661 3 -729 2
-735 -13z"/>
</g>
</svg>
